HIERARCHY
ROOT joint_Root
{
	OFFSET 0.0 0.0 0.0
	CHANNELS 6 Xposition Yposition Zposition Zrotation Xrotation Yrotation 
	JOINT Hips
	{
		OFFSET 4.5925 91.4895 -427.239
		CHANNELS 6 Xposition Yposition Zposition Zrotation Xrotation Yrotation 
		JOINT Spine
		{
			OFFSET 15.7357 0.0 0.0
			CHANNELS 6 Xposition Yposition Zposition Zrotation Xrotation Yrotation 
			JOINT Chest
			{
				OFFSET 8.98455 -0.406207 0.0
				CHANNELS 6 Xposition Yposition Zposition Zrotation Xrotation Yrotation 
				JOINT Neck
				{
					OFFSET 16.3773 0.0 0.0
					CHANNELS 6 Xposition Yposition Zposition Zrotation Xrotation Yrotation 
					JOINT Head
					{
						OFFSET 6.45672 0.0 0.0
						CHANNELS 6 Xposition Yposition Zposition Zrotation Xrotation Yrotation 
						End Site
						{
							OFFSET 0.0 0.0 0.0
						}
					}
				}
				JOINT Shoulder_L
				{
					OFFSET 12.9942 -0.242716 4.98039
					CHANNELS 6 Xposition Yposition Zposition Zrotation Xrotation Yrotation 
					JOINT UpperArm_L
					{
						OFFSET 5.34809 0.0 0.0
						CHANNELS 6 Xposition Yposition Zposition Zrotation Xrotation Yrotation 
						JOINT LowerArm_L
						{
							OFFSET 24.3286 1.87007e-05 0.0
							CHANNELS 6 Xposition Yposition Zposition Zrotation Xrotation Yrotation 
							JOINT Hand_L
							{
								OFFSET 22.2916 0.0 0.0
								CHANNELS 6 Xposition Yposition Zposition Zrotation Xrotation Yrotation 
								End Site
								{
									OFFSET 0.0 0.0 0.0
								}
							}
						}
					}
				}
				JOINT Shoulder_R
				{
					OFFSET 12.9945 -0.242716 -4.98039
					CHANNELS 6 Xposition Yposition Zposition Zrotation Xrotation Yrotation 
					JOINT UpperArm_R
					{
						OFFSET -5.34813 0.0 0.0
						CHANNELS 6 Xposition Yposition Zposition Zrotation Xrotation Yrotation 
						JOINT LowerArm_R
						{
							OFFSET -24.3289 0.000322201 0.0
							CHANNELS 6 Xposition Yposition Zposition Zrotation Xrotation Yrotation 
							JOINT Hand_R
							{
								OFFSET -22.2915 -0.000108084 0.0
								CHANNELS 6 Xposition Yposition Zposition Zrotation Xrotation Yrotation 
								End Site
								{
									OFFSET 0.0 0.0 0.0
								}
							}
						}
					}
				}
			}
		}
		JOINT UpperLeg_L
		{
			OFFSET -2.19248 -6.46944 0.0
			CHANNELS 6 Xposition Yposition Zposition Zrotation Xrotation Yrotation 
			JOINT LowerLeg_L
			{
				OFFSET 39.0811 0.0 -1.23785e-05
				CHANNELS 6 Xposition Yposition Zposition Zrotation Xrotation Yrotation 
				JOINT Foot_L
				{
					OFFSET 40.9854 0.0 -1.26872e-05
					CHANNELS 6 Xposition Yposition Zposition Zrotation Xrotation Yrotation 
					JOINT Toes_L
					{
						OFFSET 11.7543 0.0 0.0
						CHANNELS 6 Xposition Yposition Zposition Zrotation Xrotation Yrotation 
						End Site
						{
							OFFSET 0.0 0.0 0.0
						}
					}
				}
			}
		}
		JOINT UpperLeg_R
		{
			OFFSET -2.19251 6.46944 0.0
			CHANNELS 6 Xposition Yposition Zposition Zrotation Xrotation Yrotation 
			JOINT LowerLeg_R
			{
				OFFSET -39.0811 -0.00228153 -0.0401928
				CHANNELS 6 Xposition Yposition Zposition Zrotation Xrotation Yrotation 
				JOINT Foot_R
				{
					OFFSET -40.9854 0.0 0.0
					CHANNELS 6 Xposition Yposition Zposition Zrotation Xrotation Yrotation 
					JOINT Toes_R
					{
						OFFSET -11.7543 0.0 0.0
						CHANNELS 6 Xposition Yposition Zposition Zrotation Xrotation Yrotation 
						End Site
						{
							OFFSET 0.0 0.0 0.0
						}
					}
				}
			}
		}
	}
}
MOTION
Frames:	4
Frame Time:	0.0333333
0.000000 0.000000 0.000000 0.000000 0.000000 -0.000000 130.133000 90.256700 -50.727100 89.928000 -6.982000 0.720907 15.735700 0.000005 -0.000001 103.854000 84.063100 -104.016000 8.984550 -0.406207 -0.000000 3.770190 2.844970 -0.416676 16.377300 -0.000001 -0.000001 -1.937960 -4.338040 3.200920 6.456720 -0.000001 -0.000000 -7.153780 -6.025290 5.739900 12.994200 -0.242716 4.980390 -90.667000 2.057730 -72.035500 5.348090 -0.000007 -0.000001 -76.259100 23.233400 6.180500 24.328600 0.000019 0.000005 0.432258 34.451200 -0.764133 22.291600 -0.000001 0.000005 2.922710 5.051290 6.208610 12.994500 -0.242716 -4.980390 88.938100 7.624700 -82.047200 -5.348130 -0.000001 -0.000004 -53.464700 25.595400 -33.639400 -24.328900 0.000322 -0.000009 -1.970100 -2.799310 -35.142300 -22.291500 -0.000108 -0.000004 18.751000 5.407810 -3.192320 -2.192480 -6.469440 -0.000000 -178.232000 -5.684860 -25.734200 39.081100 -0.000007 -0.000012 0.023516 -0.019512 50.311200 40.985400 -0.000006 -0.000013 -1.646340 -8.108670 -64.623500 11.754300 -0.000000 0.000003 -0.007774 -0.086190 -20.086300 -2.192510 6.469440 -0.000001 176.893000 17.516700 -179.640000 -39.081100 -0.002282 -0.040193 0.004300 -0.001778 29.284100 -40.985400 0.000008 0.000006 10.254600 14.393900 -75.998300 -11.754300 -0.000006 -0.000006 -0.007089 -0.080424 -19.847200
0.000000 0.000000 0.000000 0.000000 0.000000 -0.000000 130.543000 89.945400 -48.273100 89.328900 -8.429400 0.572109 15.735700 0.000005 -0.000001 106.050000 83.841200 -106.108000 8.984550 -0.406207 -0.000000 4.079140 3.402240 -0.237641 16.377300 -0.000001 -0.000001 -2.379080 -4.204030 2.979720 6.456720 -0.000001 -0.000000 -8.163890 -6.153700 4.895370 12.994200 -0.242716 4.980390 -90.729600 2.195190 -71.609300 5.348090 -0.000007 -0.000001 -75.472200 20.240500 9.355230 24.328600 0.000019 0.000005 1.036430 31.813400 -1.965800 22.291600 -0.000001 0.000005 4.588890 5.061750 5.978510 12.994500 -0.242716 -4.980390 89.031300 7.256030 -82.374900 -5.348130 -0.000001 -0.000004 -49.961700 24.141300 -39.517400 -24.328900 0.000322 -0.000009 -2.082640 -2.506990 -39.726900 -22.291500 -0.000108 -0.000004 19.482700 5.420930 -3.629310 -2.192480 -6.469440 -0.000000 -177.989000 -7.969810 -27.145500 39.081100 -0.000007 -0.000012 0.023610 -0.024117 44.388200 40.985400 -0.000006 -0.000013 -1.863560 -6.727080 -65.093700 11.754300 -0.000000 0.000003 -0.007815 -0.086527 -20.100100 -2.192510 6.469440 -0.000001 175.688000 18.669000 -177.286000 -39.081100 -0.002282 -0.040193 -0.012378 0.029385 28.090800 -40.985400 0.000008 0.000006 10.428900 17.200200 -76.783900 -11.754300 -0.000006 -0.000006 -0.008125 -0.089051 -20.199400
0.000000 0.000000 0.000000 0.000000 0.000000 -0.000000 130.895000 89.281500 -45.355100 88.731000 -9.443580 0.893199 15.735700 0.000005 -0.000001 107.479000 83.483000 -107.453000 8.984550 -0.406207 -0.000000 4.673940 3.907060 -0.107532 16.377300 -0.000001 -0.000001 -2.535310 -4.425250 2.913710 6.456720 -0.000001 -0.000000 -9.264070 -6.385860 4.099250 12.994200 -0.242716 4.980390 -90.769700 2.294470 -71.450800 5.348090 -0.000007 -0.000001 -74.621700 18.615500 11.612700 24.328600 0.000019 0.000005 1.715090 29.712700 -3.457230 22.291600 -0.000001 0.000005 6.253930 5.089920 5.344770 12.994500 -0.242716 -4.980390 89.044200 7.136760 -82.351700 -5.348130 -0.000001 -0.000004 -47.020000 22.146100 -44.220600 -24.328900 0.000322 -0.000009 -1.419850 -1.476270 -43.879700 -22.291500 -0.000108 -0.000004 20.440200 5.428530 -3.888480 -2.192480 -6.469440 -0.000000 -178.057000 -10.572400 -28.048600 39.081100 -0.000007 -0.000012 0.020166 -0.023165 41.037500 40.985400 -0.000006 -0.000013 -2.020800 -5.594170 -66.159700 11.754300 -0.000000 0.000003 -0.007515 -0.084035 -19.998300 -2.192510 6.469440 -0.000001 174.065000 19.817500 -174.212000 -39.081100 -0.002282 -0.040193 -0.035915 0.075642 27.407700 -40.985400 0.000008 0.000006 10.419700 19.648600 -78.064700 -11.754300 -0.000006 -0.000006 -0.010689 -0.108719 -21.003500
0.000000 0.000000 0.000000 0.000000 0.000000 -0.000000 131.397000 88.372400 -42.047900 88.435100 -10.381600 0.887358 15.735700 0.000005 -0.000001 109.666000 83.400000 -109.698000 8.984550 -0.406207 -0.000000 4.676570 4.434970 -0.246063 16.377300 -0.000001 -0.000001 -2.252250 -4.716680 2.825290 6.456720 -0.000001 -0.000000 -9.633960 -6.778710 3.651480 12.994200 -0.242716 4.980390 -90.826200 2.444820 -71.321700 5.348090 -0.000007 -0.000001 -73.881300 19.001700 12.875600 24.328600 0.000019 0.000005 1.904890 27.964700 -4.056830 22.291600 -0.000001 0.000005 7.543280 5.101100 5.088370 12.994500 -0.242716 -4.980390 89.028800 7.111020 -82.202500 -5.348130 -0.000001 -0.000004 -45.419700 20.204600 -46.976300 -24.328900 0.000322 -0.000009 -0.742473 -0.679180 -47.525800 -22.291500 -0.000108 -0.000004 21.447000 5.436650 -4.168920 -2.192480 -6.469440 -0.000000 -179.330000 -13.507700 -29.694400 39.081100 -0.000007 -0.000012 0.180627 -0.209121 40.818400 40.985400 -0.000006 -0.000013 0.770220 -5.595610 -66.771400 11.754300 -0.000000 0.000003 -0.007554 -0.084365 -20.011800 -2.192510 6.469440 -0.000001 172.893000 18.417700 -172.182000 -39.081100 -0.002282 -0.040193 -0.050949 0.102394 27.917900 -40.985400 0.000008 0.000006 9.963340 19.593700 -79.422100 -11.754300 -0.000006 -0.000006 -0.013066 -0.125273 -21.681500
